<mxfile host="app.diagrams.net" modified="2021-11-19T01:18:15.761Z" agent="5.0 (Windows NT 10.0; Win64; x64) AppleWebKit/537.36 (KHTML, like Gecko) Chrome/95.0.4638.69 Safari/537.36 Edg/95.0.1020.53" etag="487TJFaqwViiW7rFYXKU" version="15.8.1" type="github">
  <diagram id="RfkVHlgcbRhezkkKAwWq" name="Page-1">
    <mxGraphModel dx="820" dy="512" grid="1" gridSize="10" guides="1" tooltips="1" connect="1" arrows="1" fold="1" page="1" pageScale="1" pageWidth="827" pageHeight="1169" math="0" shadow="0">
      <root>
        <mxCell id="0" />
        <mxCell id="1" parent="0" />
        <mxCell id="OfVpENuot3s2NzhBpu0S-3" value="" style="edgeStyle=orthogonalEdgeStyle;rounded=0;orthogonalLoop=1;jettySize=auto;html=1;" edge="1" parent="1" source="OfVpENuot3s2NzhBpu0S-1" target="OfVpENuot3s2NzhBpu0S-2">
          <mxGeometry relative="1" as="geometry" />
        </mxCell>
        <mxCell id="OfVpENuot3s2NzhBpu0S-1" value="inicio" style="strokeWidth=2;html=1;shape=mxgraph.flowchart.terminator;whiteSpace=wrap;" vertex="1" parent="1">
          <mxGeometry x="389" y="30" width="50" height="20" as="geometry" />
        </mxCell>
        <mxCell id="OfVpENuot3s2NzhBpu0S-9" value="" style="edgeStyle=orthogonalEdgeStyle;rounded=0;orthogonalLoop=1;jettySize=auto;html=1;" edge="1" parent="1" source="OfVpENuot3s2NzhBpu0S-2" target="OfVpENuot3s2NzhBpu0S-8">
          <mxGeometry relative="1" as="geometry" />
        </mxCell>
        <mxCell id="OfVpENuot3s2NzhBpu0S-2" value="leer precio" style="shape=parallelogram;html=1;strokeWidth=2;perimeter=parallelogramPerimeter;whiteSpace=wrap;rounded=1;arcSize=12;size=0.23;" vertex="1" parent="1">
          <mxGeometry x="366" y="81" width="96" height="20" as="geometry" />
        </mxCell>
        <mxCell id="OfVpENuot3s2NzhBpu0S-14" value="" style="edgeStyle=orthogonalEdgeStyle;rounded=0;orthogonalLoop=1;jettySize=auto;html=1;" edge="1" parent="1" source="OfVpENuot3s2NzhBpu0S-4" target="OfVpENuot3s2NzhBpu0S-13">
          <mxGeometry relative="1" as="geometry" />
        </mxCell>
        <mxCell id="OfVpENuot3s2NzhBpu0S-16" value="" style="edgeStyle=orthogonalEdgeStyle;rounded=0;orthogonalLoop=1;jettySize=auto;html=1;" edge="1" parent="1" source="OfVpENuot3s2NzhBpu0S-4" target="OfVpENuot3s2NzhBpu0S-15">
          <mxGeometry relative="1" as="geometry" />
        </mxCell>
        <mxCell id="OfVpENuot3s2NzhBpu0S-4" value="precio &amp;gt; 400" style="strokeWidth=2;html=1;shape=mxgraph.flowchart.decision;whiteSpace=wrap;" vertex="1" parent="1">
          <mxGeometry x="365" y="199" width="98" height="60" as="geometry" />
        </mxCell>
        <mxCell id="OfVpENuot3s2NzhBpu0S-10" value="" style="edgeStyle=orthogonalEdgeStyle;rounded=0;orthogonalLoop=1;jettySize=auto;html=1;" edge="1" parent="1" source="OfVpENuot3s2NzhBpu0S-8" target="OfVpENuot3s2NzhBpu0S-4">
          <mxGeometry relative="1" as="geometry" />
        </mxCell>
        <mxCell id="OfVpENuot3s2NzhBpu0S-8" value="DESCUENTO_1 ← 0.1&lt;br&gt;DESCUENTO_2 ← 0.04" style="rounded=0;whiteSpace=wrap;html=1;" vertex="1" parent="1">
          <mxGeometry x="339" y="130" width="150" height="40" as="geometry" />
        </mxCell>
        <mxCell id="OfVpENuot3s2NzhBpu0S-23" value="" style="edgeStyle=orthogonalEdgeStyle;rounded=0;orthogonalLoop=1;jettySize=auto;html=1;" edge="1" parent="1" source="OfVpENuot3s2NzhBpu0S-13" target="OfVpENuot3s2NzhBpu0S-21">
          <mxGeometry relative="1" as="geometry" />
        </mxCell>
        <mxCell id="OfVpENuot3s2NzhBpu0S-13" value="&lt;span style=&quot;font-family: &amp;#34;helvetica&amp;#34;&quot;&gt;valor total ← precio - (precio * DESCUENTO_2)&lt;/span&gt;" style="whiteSpace=wrap;html=1;strokeWidth=2;" vertex="1" parent="1">
          <mxGeometry x="468.5" y="289" width="261" height="30" as="geometry" />
        </mxCell>
        <mxCell id="OfVpENuot3s2NzhBpu0S-20" value="" style="edgeStyle=orthogonalEdgeStyle;rounded=0;orthogonalLoop=1;jettySize=auto;html=1;" edge="1" parent="1" source="OfVpENuot3s2NzhBpu0S-15" target="OfVpENuot3s2NzhBpu0S-17">
          <mxGeometry relative="1" as="geometry" />
        </mxCell>
        <mxCell id="OfVpENuot3s2NzhBpu0S-15" value="&lt;span style=&quot;font-family: &amp;#34;helvetica&amp;#34;&quot;&gt;valor total ← precio - (precio * DESCUENTO_1)&lt;/span&gt;" style="whiteSpace=wrap;html=1;strokeWidth=2;" vertex="1" parent="1">
          <mxGeometry x="70" y="289" width="290" height="31" as="geometry" />
        </mxCell>
        <mxCell id="OfVpENuot3s2NzhBpu0S-31" value="" style="edgeStyle=orthogonalEdgeStyle;rounded=0;orthogonalLoop=1;jettySize=auto;html=1;exitX=0.5;exitY=1;exitDx=0;exitDy=0;entryX=0;entryY=0.5;entryDx=0;entryDy=0;" edge="1" parent="1" source="OfVpENuot3s2NzhBpu0S-17" target="OfVpENuot3s2NzhBpu0S-24">
          <mxGeometry relative="1" as="geometry">
            <Array as="points">
              <mxPoint x="215" y="430" />
            </Array>
          </mxGeometry>
        </mxCell>
        <mxCell id="OfVpENuot3s2NzhBpu0S-17" value="escribir valor total, &quot;Descuento 10%&quot;" style="shape=parallelogram;perimeter=parallelogramPerimeter;whiteSpace=wrap;html=1;fixedSize=1;" vertex="1" parent="1">
          <mxGeometry x="105" y="350" width="220" height="30" as="geometry" />
        </mxCell>
        <mxCell id="OfVpENuot3s2NzhBpu0S-18" value="verdadero" style="text;html=1;strokeColor=none;fillColor=none;align=center;verticalAlign=middle;whiteSpace=wrap;rounded=0;" vertex="1" parent="1">
          <mxGeometry x="220" y="199" width="60" height="30" as="geometry" />
        </mxCell>
        <mxCell id="OfVpENuot3s2NzhBpu0S-19" value="falso" style="text;html=1;strokeColor=none;fillColor=none;align=center;verticalAlign=middle;whiteSpace=wrap;rounded=0;" vertex="1" parent="1">
          <mxGeometry x="560" y="199" width="60" height="30" as="geometry" />
        </mxCell>
        <mxCell id="OfVpENuot3s2NzhBpu0S-32" style="edgeStyle=orthogonalEdgeStyle;rounded=0;orthogonalLoop=1;jettySize=auto;html=1;entryX=1;entryY=0.5;entryDx=0;entryDy=0;exitX=0.5;exitY=1;exitDx=0;exitDy=0;" edge="1" parent="1" source="OfVpENuot3s2NzhBpu0S-21" target="OfVpENuot3s2NzhBpu0S-24">
          <mxGeometry relative="1" as="geometry">
            <mxPoint x="600" y="390" as="sourcePoint" />
            <mxPoint x="500" y="415" as="targetPoint" />
          </mxGeometry>
        </mxCell>
        <mxCell id="OfVpENuot3s2NzhBpu0S-21" value="escribir valor total, &quot;Descuento 4%&quot;" style="shape=parallelogram;perimeter=parallelogramPerimeter;whiteSpace=wrap;html=1;fixedSize=1;" vertex="1" parent="1">
          <mxGeometry x="489" y="350" width="220" height="30" as="geometry" />
        </mxCell>
        <mxCell id="OfVpENuot3s2NzhBpu0S-34" value="" style="edgeStyle=orthogonalEdgeStyle;rounded=0;orthogonalLoop=1;jettySize=auto;html=1;" edge="1" parent="1" source="OfVpENuot3s2NzhBpu0S-24" target="OfVpENuot3s2NzhBpu0S-33">
          <mxGeometry relative="1" as="geometry" />
        </mxCell>
        <mxCell id="OfVpENuot3s2NzhBpu0S-24" value="" style="ellipse;whiteSpace=wrap;html=1;aspect=fixed;" vertex="1" parent="1">
          <mxGeometry x="404" y="420" width="20" height="20" as="geometry" />
        </mxCell>
        <mxCell id="OfVpENuot3s2NzhBpu0S-33" value="fin" style="strokeWidth=2;html=1;shape=mxgraph.flowchart.terminator;whiteSpace=wrap;" vertex="1" parent="1">
          <mxGeometry x="388" y="470" width="51" height="20" as="geometry" />
        </mxCell>
      </root>
    </mxGraphModel>
  </diagram>
</mxfile>
